/* XPM */
static char *e3ddf2ef87144d93e2c8cbcf641b6c84FH4rV7XjQr3rD798[] = {
/* columns rows colors chars-per-pixel */
"31 30 40 1 ",
"  c None",
". c #B59100",
"X c #B69000",
"o c #B79000",
"O c #B69100",
"+ c #B69200",
"@ c #B89300",
"# c #BC9600",
"$ c #BC9704",
"% c #C09A00",
"& c #C59D00",
"* c #C09B08",
"= c #C9A100",
"- c #CEA400",
"; c #C5A00C",
": c #D2A800",
"> c #D7AB00",
", c #DFB300",
"< c #C9A410",
"1 c #CEA814",
"2 c #D2AD18",
"3 c #D7B11C",
"4 c #E4B600",
"5 c #E8BA00",
"6 c #EDBD00",
"7 c #DBB620",
"8 c #DFBA24",
"9 c #E4BE28",
"0 c #F1C100",
"q c #F6C400",
"w c #FAC800",
"e c #FFCC00",
"r c #E8C32C",
"t c #FACE20",
"y c #FFD220",
"u c #EDC730",
"i c #F1CB34",
"p c #F6D038",
"a c #FAD43C",
"s c #FFD941",
/* pixels */
"                               ",
"              O@O              ",
"             O@*@O             ",
"            O@<s;@O            ",
"            @;asa$@            ",
"           @$isssi@@           ",
"          O@isssss9@O          ",
"         O@9sssssss3@O         ",
"       O@@3sssssssss<@@O       ",
"    O@@@1rssssssssssa9;@@@O    ",
" O@@@;8asssssssssssssssp3*@@OO ",
"O@$3isssssssssssssssssssssr2@@O",
"O@usssssssssssssssssssssssss7@O",
" @*asssssssssssssssssssssssp$@ ",
" O@3sssssssssssssssssssssss1@O ",
"  @@usssssssssssssssssssssr@O  ",
"   @*tyyyyyyyyyyyyyyyyyyyt*@   ",
"   O@>eeeeeeeeeeeeeeeeeee:@O   ",
"    @@0eeeeeeeeeeeeeeeee4@O    ",
"    O@-eeeeeeeeeeeeeeeee#@     ",
"     @=eeeeeeeeeeeeeeeee@@     ",
"     @%eeeeeeeeeeeeeeeee@@     ",
"     @@eeeeeeeeeeeeeeeee@@     ",
"     @@eeeeeeeeeeeeeeeew@@     ",
"     @@eeeeeeeeeeeeeeee6@O     ",
"     @@weeeeeeq6qeeeeee6@O     ",
"     O@6eee5>&@@@&>5eee6@O     ",
"     O@,,=@@@@@@@@@@@=,,@O     ",
"     O@@@@@OO     OO@@@@@O     ",
"      OOO             OOO      "
};
