/* XPM */
static char *f1818691ee0542e3b9321501a9d32c621vgD7lHgdIcDYYR7[] = {
/* columns rows colors chars-per-pixel */
"50 50 238 2 ",
"   c None",
".  c black",
"X  c #203652",
"o  c #3A5A7C",
"O  c #365679",
"+  c #405E7F",
"@  c #3B5D85",
"#  c #365C84",
"$  c #335A95",
"%  c #3D628A",
"&  c #3A6087",
"*  c #3C6593",
"=  c #3E6A9B",
"-  c #3A659B",
";  c #325EA9",
":  c #3C6CA7",
">  c #426286",
",  c #43648C",
"<  c #4A668C",
"1  c #436895",
"2  c #4B6C94",
"3  c #446D9C",
"4  c #4B6E9A",
"5  c #436694",
"6  c #526E96",
"7  c #4D729D",
"8  c #457199",
"9  c #557193",
"0  c #53729B",
"q  c #5B799E",
"w  c #597596",
"e  c #516A8D",
"r  c #627D9A",
"t  c #436EA6",
"y  c #4572A2",
"u  c #4D74A3",
"i  c #4573AB",
"p  c #4A76A9",
"a  c #4D7AAB",
"s  c #4B7AA4",
"d  c #5275A2",
"f  c #5479A4",
"g  c #5B7CA3",
"h  c #547CAB",
"j  c #5A7EAA",
"k  c #5376A8",
"l  c #4D7CB3",
"z  c #4579B8",
"x  c #537EB1",
"c  c #3771C2",
"v  c #5C81AB",
"b  c #5A81AA",
"n  c #4D82BB",
"m  c #4F80B6",
"M  c #5582B4",
"N  c #5B84B3",
"B  c #5C8AB3",
"V  c #5385BA",
"C  c #5A85BA",
"Z  c #5589BF",
"A  c #5C8BBD",
"S  c #578BB5",
"D  c #6283A6",
"F  c #6185AB",
"G  c #698AAD",
"H  c #648BB4",
"J  c #6A8DB4",
"K  c #648DBA",
"L  c #6389B4",
"P  c #6D90B5",
"I  c #6692BB",
"U  c #6B93BB",
"Y  c #6697B6",
"T  c #7393B4",
"R  c #7997B8",
"E  c #6392AD",
"W  c #7AA6BB",
"Q  c #4D86C5",
"!  c #558DC4",
"~  c #5B8DC3",
"^  c #588BC8",
"/  c #5E92C4",
"(  c #5D95CC",
")  c #5993C9",
"_  c #458BD2",
"`  c #4895DC",
"'  c #5D9AD5",
"]  c #618DC4",
"[  c #6394C2",
"{  c #6C96C2",
"}  c #6D9AC5",
"|  c #6395CB",
" . c #659ACD",
".. c #6D9BCB",
"X. c #639AC4",
"o. c #739BC4",
"O. c #7B9CC1",
"+. c #719DCB",
"@. c #749AC7",
"#. c #659CD2",
"$. c #689DD9",
"%. c #5DA2DB",
"&. c #6BA1C9",
"*. c #73A1CE",
"=. c #7BA6C9",
"-. c #7CB2CD",
";. c #6BA3D3",
":. c #64A3DB",
">. c #6DA4DB",
",. c #6DAADB",
"<. c #68A3D2",
"1. c #74A4D4",
"2. c #7AA5D4",
"3. c #7BAAD6",
"4. c #74ACDD",
"5. c #7CAEDD",
"6. c #74A8D6",
"7. c #7EB1DC",
"8. c #4C9DE2",
"9. c #51A9E8",
"0. c #6DABE3",
"q. c #67A9E8",
"w. c #72ABE2",
"e. c #79AEE4",
"r. c #6CB2EA",
"t. c #6DB9EB",
"y. c #74B3E3",
"u. c #7CB2E3",
"i. c #73B4EC",
"p. c #75BAED",
"a. c #7CBCEB",
"s. c #7AB7E9",
"d. c #77BAF2",
"f. c #6EBEF0",
"g. c #7BC0EE",
"h. c #75C3EE",
"j. c #7BC5F2",
"k. c #77C8F4",
"l. c #7DD9F2",
"z. c #6EC0EF",
"x. c #859EBA",
"c. c #8EA3BA",
"v. c #99A9BC",
"b. c #8DACCD",
"n. c #86A6C7",
"m. c #98AEC7",
"M. c #85ACD4",
"N. c #8CAED2",
"B. c #85ABD6",
"V. c #82B3DC",
"C. c #89B7D8",
"Z. c #95B2D2",
"A. c #9AB5D2",
"S. c #93B5DB",
"D. c #9BBBDD",
"F. c #9ABAD7",
"G. c #94B0CD",
"H. c #A4BCD6",
"J. c #A4BDD9",
"K. c #83B5E2",
"L. c #8AB5E2",
"P. c #84B9E4",
"I. c #8BBDEA",
"U. c #87B9E8",
"Y. c #95BBE4",
"T. c #9DBEE2",
"R. c #92BEE9",
"E. c #80AEE1",
"W. c #8DC0DE",
"Q. c #AAC4DB",
"!. c #B3C6DD",
"~. c #83C2EC",
"^. c #8CC3E9",
"/. c #9AC1E9",
"(. c #9BCAED",
"). c #97C5E9",
"_. c #9ED1ED",
"`. c #82C5F2",
"'. c #8CCBF4",
"]. c #87CBF5",
"[. c #9CCEF3",
"{. c #94CDF7",
"}. c #83D2F5",
"|. c #8CD4F6",
" X c #84DDF3",
".X c #8CD2F8",
"XX c #8ADAF6",
"oX c #93D3F5",
"OX c #93DBF6",
"+X c #94D3F9",
"@X c #9BDCF9",
"#X c #9BD7F7",
"$X c #80D1EF",
"%X c #A2C3E3",
"&X c #AAC6E5",
"*X c #A5CAEA",
"=X c #AACDEB",
"-X c #A4CAE7",
";X c #B5CBE3",
":X c #B4CDE8",
">X c #AAD3ED",
",X c #A4D4EE",
"<X c #B8D2EB",
"1X c #A3D5F4",
"2X c #ACD5F2",
"3X c #A6DCF7",
"4X c #AEDCF5",
"5X c #A5DDFB",
"6X c #ACDCF9",
"7X c #B4DDF5",
"8X c #B9DAF4",
"9X c #B1D9F6",
"0X c #8CE2F5",
"qX c #9BE4FA",
"wX c #9DEAFA",
"eX c #94E5F8",
"rX c #A4E4FB",
"tX c #ACE3FB",
"yX c #A9EAFC",
"uX c #B2E5FA",
"iX c #B3EAFD",
"pX c #B9E5F8",
"aX c #A9F1FB",
"sX c #B2F3FC",
"dX c #C0CEDF",
"fX c #C7D9EC",
"gX c #C3DBF4",
"hX c #C3E6F6",
"jX c #C3E5FA",
"kX c #C3E9FA",
"lX c #CBECFB",
"zX c #CBE6F6",
"xX c #D3EDFB",
"cX c #D6EAF8",
"vX c #CAF0FD",
"bX c #DBF4FE",
"nX c #CBE3EC",
"mX c #E8F6FD",
/* pixels */
"                                                                                                    ",
"                                                                                                    ",
"                                                                                                    ",
"                                                                                                    ",
"                                                                                                    ",
"                            p     n n a p p a m 4 s ~ A M a                                         ",
"                                %.^ n l ! l l ) ~ s 4 h [ 5./ 8 i                                   ",
"                            ' ! a 4 4 2 7 0 E 0 E 4 k V h C I | a t z                               ",
"                          ( p 4 0 f 0 0 j B g f N g 0 < j M j X.[ M 3 ! :.                          ",
"                        7 8 4 2 6 0 Y v v v } -.-.=.I w e f C j  .| [ y Q l                         ",
"                    * , 4 M d j g v v L +.} } 1.3.P.*.I g q b f N  .| M 3 ! *                       ",
"              :   % , 7 k A b.-.4.^.j.d.d.i.#X4.6.2.7.V.*.H 9 v A #.| -.u i Z O                     ",
"              8 8 s a M <.~ $.p.h.k.}..XrXqXeX0X XOXw.P.+.P.U w q ;.C.<.d s y , #     9.            ",
"              7 Z X.| &.&.`.}.XXiX@X.X#X7XkXzXkXuXeXeXk.w.+.3.{ K g 0.).h k 2 p O =   9.%.          ",
"            m ) ( ,.h ~ j.}.]..X1X#XT.S.A.Z.<XzX1X6XkXOX0Xi.4.*.{ q  .a.| M 0 4 @ o   8.`           ",
"          i V ' ^ < M y..X].{.).b.R R c.m.;Xm.m.H.8XxXlX@XeXi.>.3.H v i.e.j f 4 4 O Q   _           ",
"          l %.V > d g.d.pXI.n.T C.n.%X(.^.U.`.R.Y.S.Z.zXbXiXyX1X{ 2.g y.w.#.f M 7 O 1 ` `           ",
"            ) f B ~.i.(.B.T T J U.#XoX{.I.e.E.e.L.L.Y.R.2XmXiX|.e.2.U >.t.>.=.I 7 o % _ c           ",
"      z   :.1 > >.^.:XM.P w I OXXXiX{.K.2.@.O.N.2X2.(.S.Y.lXbX+X]...Q.w.r.0.6.=.6 > @ z ;           ",
"          l * X.1.7.N.J 9 F h.l.f.+XL.D.:X<X8X-X=XjXS.*XZ.*XbXvX[.@.2.2.d.`.w.L 6 < p i $           ",
"          o > | B H J g v i. Xl.w.*.J.!.H.J.-XD.-X7X=XR.jXfXmXmXR.2.+.1.j.j.0.j f f 5 t $           ",
"          o < C j P g W ~.k.l.'.K b.D.fX=X/.cXnXzXo.L.*XlXzXmXlX<XT.{ ..j.k.q.N B 0 < i :           ",
"        # o 6.j v H W H p.0X}.] J T.9X6X<Xc.Q.N.R b.n.).xX*XfXxXcXZ.[ 6.OXl.$.{ g 6 u t -           ",
"          , d 0 j j Y w.h.0X$.J G.U.lXjXZ.R r K Y c.n.Y.cX*X:XcXgXb.*.e.qX@X:.F.0 6 u z s *         ",
"          5 7 k Y I q r.l. XK C.).rX6X;Xx.T D X . n.M.&X:X%X;XgXD.m.M.s.}.eX$.D q } / t y *         ",
"        o 4 M f b U j f.OXy.J o./.rXvXm.P R F F 9 v C.%XfXO.2X=X-XF.*.eX0XaXK D g | s t = &         ",
"        % p d 0 0 K | k.}.4.o.+.U.sX7Xv.n.T O.g q G c.Z.=X&XcX8X=XA.^.@XwXU.2.v J M 4 @ *           ",
"        3 A 4 0 b K | z.}.1.P *.].yX3Xv.C.{ N.O.C.E G G.A.;X&X;XH.+.OXrXaX{.o.F { M s 1 *           ",
"        l p u f b B ] h.}.1.J { .X@XuXG O.2.Y.J.m.H.!.J.H.H.;XQ.Q.rX@XsX/.(.Y b.K.[ y a *           ",
"        p u S B N b ;.h.'.1.J J ]..X6Xo.n.T._.=XdXfXb.-X%XA.T.lX.XqXiX+X<X).O.zX$.k 4 3 8           ",
"        m a 3 M 0 N A h.oX5.U J +X|.iXU.n.Y.jX1XI.o.n.N.*X*XbX|.eXrX@XfXJ.n.B.5.f M S 3             ",
"          3 i E 0 N N t._.'.W.g s.|.qX{.R.2./.uXkXjXtXrXvX|.#XuXOX#XgXfXn.B.5.j h h 3 *             ",
"            = H 7 K j q.(.~.2.F +.@XXXwX4XY.E.[.oX6XpXhX7XuXtXrXuXmX<Xx.Y.V.K [ x 4 3               ",
"            = l 2 B ~ ( p._.6.U &.+XuXeX3XxX=X8X3X3XvXjX6X3X(.pX8X!.N.2XV.1.x ~ h A                 ",
"            - Z , N &.A t.>Xy.W.o.{ uXyXeX6X9X9X>XT.D.T.*XzXQ.J.Z.*XL.5.L d ~ h Z i                 ",
"              a , h 1.f ~ (.,X1.} D 5.2XpXaXiXjXlXmXhX:XfX<X*X(.B.2.{ C k ~ C l n n                 ",
"                  a 2.A 4 r.~.oX..&.G P._.4XiXeX5X{.K.V.K.I.L.E.e.$.#.#.| ( Q *                     ",
"                    S A 2 a ^.a.s.2.F H 1.4.1X4XOXqXeXOX.X].i.>.>.>.<.:.:.p @ *                     ",
"                        7 4 ^ r.y.y.{ F g H K ;.'.pX4X{.g.~.3X'.~.s.( u @ o #                       ",
"                            s ) #.r.<.B g q F v L L [ | | #.~ C x 2 , 8 @ #   y                     ",
"                              1 ! Z | #.C v g B B v I b q Y b > + % @ 3 3                           ",
"                                  x l a ~ | M X.N v f h 7 b a B h V C     y                         ",
"                                      V 1 3 m V 4 4 u f M M ~ <. .A                                 ",
"                                          1 & & 5 3 i 8 y                                           ",
"                                                                                                    ",
"                                                                                                    ",
"                                                                                                    ",
"                                                                                                    ",
"                                                                                                    ",
"                                                                                                    "
};
