/* XPM */
static char *_b1f8b1b1a974972c254034015da16f8FzXw0Qnp6vfl9ZHA[] = {
/* columns rows colors chars-per-pixel */
"50 50 165 2 ",
"   c None",
".  c #4A3C55",
"X  c #4A3F59",
"o  c #4B435D",
"O  c #4F4862",
"+  c #4B4761",
"@  c #514E67",
"#  c #54536D",
"$  c #465473",
"%  c #4E5572",
"&  c #525D7A",
"*  c #BD9700",
"=  c #BE9800",
"-  c #C69F03",
";  c #CEA500",
":  c #D2A800",
">  c #ECBD03",
",  c #E3B601",
"<  c #EFC001",
"1  c #F4C301",
"2  c #FFCC01",
"3  c #FDCD08",
"4  c #F5CC1B",
"5  c #FACF1D",
"6  c #F9CD14",
"7  c #E8C42E",
"8  c #F9CF20",
"9  c #F7D027",
"0  c #E3C63A",
"q  c #F5D135",
"w  c #EACF46",
"e  c #F1D249",
"r  c #DCD175",
"t  c #E1CD68",
"y  c #E9D465",
"u  c #E9D671",
"i  c #5E7A99",
"p  c #577FA1",
"a  c #1783B3",
"s  c #1884B4",
"d  c #1A87B8",
"f  c #1B8ABB",
"g  c #4682AA",
"h  c #5C98AE",
"j  c #4E95B2",
"k  c #5998B0",
"l  c #5898BA",
"z  c #7FA4AC",
"x  c #1F91C3",
"c  c #2195C8",
"v  c #2598CA",
"b  c #3C93C3",
"n  c #269ED3",
"m  c #2BA6DC",
"M  c #27A0D4",
"N  c #2EACE4",
"B  c #38ABE1",
"V  c #3FB2E7",
"C  c #34B4EC",
"Z  c #36B7F0",
"A  c #36BBF5",
"S  c #3BBCF4",
"D  c #4A9BC7",
"F  c #50A7D3",
"G  c #5BADD8",
"H  c #75A4C3",
"J  c #65B1D8",
"K  c #46B2E5",
"L  c #46B9EC",
"P  c #53B9E8",
"I  c #43BEF4",
"U  c #4CBFF1",
"Y  c #64BEE6",
"T  c #5BC2ED",
"R  c #4CC1F3",
"E  c #53C3F4",
"W  c #5CC7F5",
"Q  c #68C5EC",
"!  c #72C7E9",
"~  c #77C8E8",
"^  c #79C8E8",
"/  c #60C7F4",
"(  c #66C9F4",
")  c #6DCBF4",
"_  c #6FCEF8",
"`  c #73CDF4",
"'  c #79CEF3",
"]  c #95A89A",
"[  c #8DA7AC",
"{  c #8EA8AC",
"}  c #90AAAF",
"|  c #98AFA9",
" . c #94ADB2",
".. c #8EB1BA",
"X. c #9CB4B9",
"o. c #9AB2B7",
"O. c #A3B6BA",
"+. c #CECC88",
"@. c #D0CC83",
"#. c #DFD99D",
"$. c #E3D990",
"%. c #CBD3AD",
"&. c #DEDCAD",
"*. c #C9D4B0",
"=. c #DCDDB8",
"-. c #E0DBA4",
";. c #8AB9C9",
":. c #90B3C3",
">. c #A8BDC3",
",. c #AAC1C6",
"<. c #AEC4C9",
"1. c #A7C1C6",
"2. c #B3C6CC",
"3. c #B6CCD2",
"4. c #BACCD2",
"5. c #ACD3DE",
"6. c #BFD6D4",
"7. c #B7D5DC",
"8. c #BDD6DB",
"9. c #8CCCE4",
"0. c #85CBE5",
"q. c #9ACFE3",
"w. c #86D2F3",
"e. c #94D6F3",
"r. c #9AD8F3",
"t. c #A2D0E0",
"y. c #A8D5E9",
"u. c #A2DBF3",
"i. c #ABDDF3",
"p. c #B3DFF3",
"a. c #B6E0F3",
"s. c #BCE2F2",
"d. c #CBCBCB",
"f. c #D8DECB",
"g. c #C2D5D6",
"h. c #C4D5DB",
"j. c #C3D9DE",
"k. c #D4D4D4",
"l. c #DBDBDB",
"z. c #D6DFD4",
"x. c #C6DBE0",
"c. c #CCDDE3",
"v. c #C7DEE9",
"b. c #D1DFE5",
"n. c #CFE0E3",
"m. c #D3E1E7",
"M. c #DFE8EA",
"N. c #C5E4F2",
"B. c #CFE8F2",
"V. c #C8E5F3",
"C. c #D3E9F2",
"Z. c #D9EBF2",
"A. c #E5E5E5",
"S. c #E3EAEB",
"D. c #EAECEC",
"F. c #E2EDF2",
"G. c #E4EEF2",
"H. c #EDEFF0",
"J. c #EAF0F2",
"K. c #EEF0F1",
"L. c #EBF0F2",
"P. c #F1F1F1",
"I. c gray95",
"U. c #F0F1F2",
"Y. c #F2F2F2",
/* pixels */
"                                              d.d.d.                                                ",
"                                              d.y.v.d.                                              ",
"                                              k.' i.k.                                              ",
"                                            d.A.R w.l.                                              ",
"                                            d.D.A E A.d.                                            ",
"                                            d.Z.A A K.d.                                            ",
"                                            l.B.A A G.d.                                            ",
"                                          d.D.e.A A Z.l.                                            ",
"                                          d.P.E A A u.D.d.                                          ",
"                                          d.I.A A A W I.d.                                          ",
"                                          l.I.A A A A I.d.                                          ",
"                                        d.A.G.A _ W A I.l.                                          ",
"                                        O.D.i.A H J A H.D. .                                        ",
"                                       .4.I.W S O i A p.H.,.{                                       ",
"                                    { 3.b.I.U Z . # S ` I.j.X.                                      ",
"                                    [ 8.S.I.S K . . S R I.m.3.}                                     ",
"                                [  .4.8.P.H.A G . . K S I.S.8.2. .                                  ",
"                              } o.h.j.j.I.s.A i . . F S I.I.8.c.h. .{                               ",
"                            [ O.c.m.8.c.I.w.A # . . g S N.I.j.j.m.c.O.{                             ",
"                          } 3.b.m.m.8.S.P.( A . . . @ S e.I.b.8.m.m.c.<.{                           ",
"                         .4.b.m.m.c.8.I.I.R A . . . . A ) I.S.8.c.m.m.m.4. .                        ",
"                    {  .x.m.m.m.m.j.8.I.L.A P . . . . S E I.I.8.c.m.m.m.b.h. .{                     ",
"                  { O.b.m.m.m.m.m.8.m.I.B.A l . . . . K S K.I.8.x.b.m.m.m.m.c.X.{                   ",
"                } 2.b.m.m.m.m.m.n.8.D.I.p.A & . . . . g A Z.I.m.8.m.m.m.m.m.m.b.,.{                 ",
"               .4.m.m.m.m.m.m.m.c.8.I.I.w.A + . . . . % A a.I.H.8.c.m.m.m.m.m.m.b.2. .              ",
"          {  .h.m.m.m.m.m.m.m.m.j.8.I.I./ A o . . . . o A e.I.I.8.c.m.m.m.m.m.m.b.b.8.{ {           ",
"    s f k X.b.m.m.m.m.m.m.m.m.m.8.m.I.K.A I . . . . . . A ( I.I.j.j.m.m.m.m.m.m.m.m.m.c.X.j d a     ",
"  s c C ;.8.m.m.m.m.m.m.m.m.m.b.8.S.I.G.S D . . . . . . B S K.I.m.8.m.m.m.m.m.m.m.m.m.m.8.;.C f a   ",
"a n A A q.8.b.m.m.m.m.m.m.m.m.c.8.H.I.C.A g $ $ $ $ $ $ b A G.I.S.8.b.m.m.m.m.m.m.m.m.m.8.0.A A c a ",
"s C A A ~ 8.b.m.m.m.m.m.m.m.m.8.j.I.I.i.A C C C V C C C Z A Z.I.H.8.c.b.m.m.m.m.m.m.m.c.8.T A A N s ",
"a n A A U 8.c.b.m.m.m.m.m.m.m.8.m.I.I.( A A A A A A A A A A a.I.U.c.x.m.m.m.m.m.m.m.m.j.8.A A A f   ",
"  s A A A 7.j.m.m.m.m.m.m.m.n.8.S.I.I.S A A A A A A A A A A ' I.U.b.8.m.m.m.m.m.m.m.m.8.5.A A C s   ",
"  s m A A t.h.m.m.m.m.m.m.m.x.8.K.I.I.A A A A A A A A A A A R I.I.S.8.n.m.m.m.m.m.m.m.8.9.A A x a   ",
"    f A A ! 8.m.m.m.m.m.m.m.8.x.I.I.I.A A A A A A A A A A A A K.I.K.8.x.m.m.m.m.m.m.c.8.U A A d     ",
"    s C A S 8.c.m.m.m.m.m.m.8.c.I.I.V.A A A A A A A A A A A A I.I.U.x.8.m.m.m.m.m.m.c.8.A A n a     ",
"      x A A 8.j.m.m.m.m.m.c.8.S.I.I.V.A A A A A A A A A A A A U.I.U.n.8.m.m.m.m.m.m.j.7.A A f       ",
"      s C A q.j.m.f.&.f.m.x.8.S.I.I.I.A A A A A A A A A A A A U.I.I.n.8.c.m.-.&.z.m.8.~ A N a       ",
"      a M A T 6.e 8 2 u m.j.8.j.I.I.I.A A A A A A A A A A A R I.U.I.8.8.j.m.q 3 9 y 8.I A x         ",
"        f A S 8.6 2 2 q m.8.8.8.D.I.I.R A A A A A A A A A A r.I.I.M.8.8.x.m.6 2 2 w 8.A C a         ",
"        a N A 8.w 2 2 8 m.c.8.8.m.I.I.e.A A A A A A A A A A B.I.I.c.8.8.m.m.3 2 2 r t.A v a         ",
"          f S 9.r 2 2 3 m.m.8.8.j.I.I.C.A A A A A A A A A A G.I.H.8.8.8.m.=.2 2 2 *.! A a           ",
"          a C T %.2 2 2 f.m.j.8.8.S.I.G.A A A A A A A A A I K.I.m.8.8.c.m.$.2 2 3 8.R m a           ",
"            x I 8.2 2 2 #.m.m.8.8.j.I.I.S A A A A A A A A ) I.I.8.8.8.m.m.y 2 2 4 8.A d             ",
"            s A 5.4 1 > t m.m.8.,.X.P.I.) A A A A A A A A u.I.A.X.<.j.m.b.7 1 1 0 t.N s             ",
"              n 0.0 > > 0 g.>.} } O.A.I.r.A A A A A A A A V.I.k.} {  .<.g.> > > +.! x               ",
"              f Q @., ; = [ {       d.I.V.A A A A A A A A H.I.d.      { ] - : , 6.L s               ",
"              a v | = = =           d.D.L.A A A A A A A E I.l.d.          * * - ..c                 ",
"                a z                   k.I.E A A A A A A ) K.k.                  h a                 ",
"                                      d.D.Y N N N N N N q.S.d.                                      ",
"                                      d.d.l s s s s s s :.d.                                        "
};
