/* XPM */
static char *d8613321fe574723ab4df396bcc497a9h0EP7SBWPzwfYHkj[] = {
/* columns rows colors chars-per-pixel */
"45 40 39 1 ",
"  c None",
". c #707B80",
"X c #717B81",
"o c #717C81",
"O c #717D81",
"+ c #727C82",
"@ c #737E83",
"# c #747F84",
"$ c #768186",
"% c #778287",
"& c #798489",
"* c #7A858A",
"= c #7C878C",
"- c #7D888D",
"; c #7F8A8F",
": c #808C91",
"> c #828D92",
", c #838F94",
"< c #859095",
"1 c #869297",
"2 c #889398",
"3 c #89959A",
"4 c #8B979C",
"5 c #8B989D",
"6 c #8C999E",
"7 c #8D9A9F",
"8 c #8E9BA1",
"9 c #8F9CA2",
"0 c #909EA3",
"q c #919FA5",
"w c #92A0A6",
"e c #93A1A7",
"r c #94A2A9",
"t c #95A4AA",
"y c #96A5AB",
"u c #97A6AD",
"i c #98A7AE",
"p c #99A8AF",
"a c #9AAAB1",
/* pixels */
"                                             ",
"                          @.@@@@             ",
"                    ..@@@@@@@%=@@            ",
"             .@@@@@@@@@%=;,<444=@@           ",
"        @@@@@@@@@==;,<4444444444=@.          ",
"      @@@@@%=;<244444444444444444%@.         ",
"      @@<244444444444444444444444<#@         ",
"     .@=44444444444444444444444444<@@        ",
"     @@,444444444444444444444444444;@@       ",
"     @@44444444444444444444444444444=@@      ",
"    .@=444444444444444444444444444444%@@     ",
"    @@,4444444444444444444444444444441@@     ",
"    @#44444444444445889eeutt4444444444<@@    ",
"   .@=444444447ttpaaaaaaaaaar4444444444,@@   ",
"   @@,444444448aaaaaaaaaaaaaae4444444444;@.  ",
"   @@4444444448aaaaaaaaaaaaaaa94444444444%@@ ",
"  .@=4444444448aaaaaaaaaaaaaaaa94444444444%@ ",
"  .@,4444444448aaaaaaaaaaaaaaaap7444444444,@@",
"  @@<4444444448aaaaaaaaaaaaaaaaai544444444=@@",
" .@=44444444448aaaaaaaaaaaaaaaaau74444444,@@ ",
" .#,44444444448aaaaaaaaaaaaaaaae444444444@@  ",
" @@244444444448aaaaaaaaaaaaaap9444444444=@@  ",
".@=444444444449paaaaaaaaaaaat4444444447;@@   ",
".@:444444444445qaaaaaaaaaaa04444444444<%@    ",
"@@244444444444447taaaaaaau744444444444%@@    ",
".@%4444444444444449iaaaae544444444444:@@     ",
" @@#1444444444444445eip9544444444444<@@      ",
"  .##<444444444444445554444444444444%@.      ",
"   .##<4444444444444444444444444444=#.       ",
"    .@@,44444444444444444444444444,@@        ",
"      @@,4444444444444444444444444%@         ",
"       @@,44444444444444444444444%@@         ",
"        @@=444444444444444444444,@.          ",
"         @@=44444444444444444444@@           ",
"          @@=444444444444444444=@@           ",
"           @@%2444444444444444;@@            ",
"            @@%;;<144444444441#@             ",
"             @@@@@@@#%=;,<<44%@.             ",
"                .@.@@@@@@@@@@@.              ",
"                        ...@@@               "
};
